<svg width="272" height="220" viewBox="0 0 272 220" fill="none" xmlns="http://www.w3.org/2000/svg">
<g clip-path="url(#clip0_6577_59763)">
<path d="M6.72983 78.4722C3.27099 53.8613 20.4182 31.1062 45.0291 27.6474L193.569 6.7714C218.18 3.31256 240.935 20.4597 244.394 45.0707L265.27 193.611C268.729 218.222 251.582 240.977 226.971 244.436L78.4306 265.312C53.8197 268.771 31.0646 251.623 27.6058 227.012L6.72983 78.4722Z" fill="#020817"/>
<path d="M96.3312 160.955L97.5733 169.793L58.6011 161.941L57.2546 152.36L92.563 134.143L93.8052 142.982L66.8455 155.935L96.3312 160.955ZM119.353 168.398C111.554 169.494 106.164 165.632 105.194 158.725C104.244 151.966 108.551 147.044 117.146 145.154L128.024 142.792L127.909 141.975C127.209 136.999 123.957 135.412 119.352 136.059C114.005 136.81 111.347 139.456 111.89 143.318L104.166 144.403C103.049 136.457 108.854 130.339 118.806 128.94C128.684 127.552 135.526 132.044 136.956 142.219L140.087 164.5L132.14 165.617L130.71 160.289C129.682 164.296 125.072 167.595 119.353 168.398ZM121.363 161.148C126.934 160.365 130.029 156.522 129.236 150.877L128.964 148.946L121.398 150.616C115.826 151.929 113.934 154.088 114.351 157.059C114.821 160.401 117.278 161.722 121.363 161.148ZM165.745 135.9L143.019 139.095L142.361 134.416L152.92 122.783C155.546 119.914 156.58 117.573 156.184 114.75C155.662 111.037 153.598 109.282 150.255 109.752C146.839 110.232 145.157 112.816 145.731 116.901L139.641 117.757C138.831 110.373 142.565 105.152 149.473 104.182C156.454 103.2 161.346 106.754 162.296 113.513C162.901 117.82 161.249 121.688 157.644 125.679L151.742 132.188L164.963 130.33L165.745 135.9ZM212.146 140.361L176.848 158.652L175.606 149.814L202.565 136.86L173.08 131.84L171.838 123.002L210.799 130.78L212.146 140.361Z" fill="white"/>
<g filter="url(#filter0_f_6577_59763)">
<path d="M-10.1162 -17.98C-17.4843 -20.6468 -25.7781 -18.2744 -33.2279 -17.2274C-34.0468 -23.0545 -30.0775 -27.6442 -28.3424 -33.1992C-21.7625 -54.2652 -13.0649 -72.5401 7.7118 -82.9633C18.7724 -88.5121 35.6532 -87.1005 43.5511 -76.5474C48.0283 -70.5649 50.1497 -62.832 55.8216 -57.7282C62.8656 -51.3897 72.0903 -46.9049 81.6335 -46.5608C91.3252 -46.2115 101.997 -47.6299 111.398 -50.0755C117.621 -51.6944 123.495 -54.4409 129.815 -55.6942C144.019 -58.5105 154.397 -57.9635 161.224 -44.0211C170.211 -25.6671 161.731 -8.04359 143.739 -1.01117C127.539 5.32104 112.38 16.5236 104.277 32.4315C99.1324 42.5318 91.4471 50.8455 80.4043 55.0379C70.4913 58.8013 57.9639 60.7812 47.5009 58.4144C43.2374 57.4499 39.8653 54.8533 36.1743 52.6533C25.977 46.5753 19.5934 36.5566 16.9215 25.0561C15.302 18.0855 15.724 10.617 13.0565 3.89697C9.13499 -5.98215 -0.138097 -14.3685 -10.1162 -17.98Z" fill="url(#paint0_linear_6577_59763)"/>
</g>
</g>
<path d="M8.58658 78.2113C5.27186 54.6258 21.7046 32.8188 45.2901 29.5041L193.83 8.62815C217.416 5.31343 239.223 21.7461 242.537 45.3316L263.413 193.872C266.728 217.457 250.295 239.264 226.71 242.579L78.1697 263.455C54.5842 266.77 32.7773 250.337 29.4625 226.751L8.58658 78.2113Z" stroke="#1E293B" stroke-width="3.75"/>
<defs>
<filter id="filter0_f_6577_59763" x="-139.176" y="-191.993" width="409.856" height="357.271" filterUnits="userSpaceOnUse" color-interpolation-filters="sRGB">
<feFlood flood-opacity="0" result="BackgroundImageFix"/>
<feBlend mode="normal" in="SourceGraphic" in2="BackgroundImageFix" result="shape"/>
<feGaussianBlur stdDeviation="52.9194" result="effect1_foregroundBlur_6577_59763"/>
</filter>
<linearGradient id="paint0_linear_6577_59763" x1="56.3834" y1="-91.3403" x2="77.2593" y2="57.1999" gradientUnits="userSpaceOnUse">
<stop stop-color="#3259E8"/>
<stop offset="1" stop-color="#0D1D57"/>
</linearGradient>
<clipPath id="clip0_6577_59763">
<path d="M6.72983 78.4722C3.27099 53.8613 20.4182 31.1062 45.0291 27.6474L193.569 6.7714C218.18 3.31256 240.935 20.4597 244.394 45.0707L265.27 193.611C268.729 218.222 251.582 240.977 226.971 244.436L78.4306 265.312C53.8197 268.771 31.0646 251.623 27.6058 227.012L6.72983 78.4722Z" fill="white"/>
</clipPath>
</defs>
</svg>
