<svg width="154" height="40" viewBox="0 0 154 40" fill="none" xmlns="http://www.w3.org/2000/svg">
<g clip-path="url(#clip0_6308_96533)">
<path d="M0 8C0 3.58172 3.58172 0 8 0H32C36.4183 0 40 3.58172 40 8V32C40 36.4183 36.4183 40 32 40H8C3.58172 40 0 36.4183 0 32V8Z" fill="#020817"/>
<path d="M12.12 23.208V24.874L5.12 22.41V20.604L12.12 18.154V19.82L6.8 21.514L12.12 23.208ZM16.1822 25.182C14.7122 25.182 13.8162 24.328 13.8162 23.026C13.8162 21.752 14.7402 20.954 16.3782 20.828L18.4502 20.674V20.52C18.4502 19.582 17.8902 19.204 17.0222 19.204C16.0142 19.204 15.4542 19.624 15.4542 20.352H13.9982C13.9982 18.854 15.2302 17.874 17.1062 17.874C18.9682 17.874 20.1162 18.882 20.1162 20.8V25H18.6182L18.4922 23.978C18.1982 24.692 17.2602 25.182 16.1822 25.182ZM16.7422 23.894C17.7922 23.894 18.4642 23.264 18.4642 22.2V21.836L17.0222 21.948C15.9582 22.046 15.5522 22.396 15.5522 22.956C15.5522 23.586 15.9722 23.894 16.7422 23.894ZM25.6021 20.38H21.3181V19.498L23.5721 17.622C24.1321 17.16 24.3841 16.754 24.3841 16.222C24.3841 15.522 24.0481 15.144 23.4181 15.144C22.7741 15.144 22.3961 15.578 22.3961 16.348H21.2481C21.2901 14.962 22.1161 14.094 23.4181 14.094C24.7341 14.094 25.5461 14.878 25.5461 16.152C25.5461 16.964 25.1401 17.636 24.3701 18.28L23.1101 19.33H25.6021V20.38ZM34.0634 22.41L27.0634 24.874V23.208L32.3834 21.514L27.0634 19.82V18.154L34.0634 20.604V22.41Z" fill="white"/>
<g filter="url(#filter0_f_6308_96533)">
<path d="M-0.868932 -14.0956C-2.71568 -15.0733 -4.99388 -14.7546 -7 -14.7546C-7 -16.3238 -5.7815 -17.3885 -5.11714 -18.791C-2.59774 -24.1097 0.377263 -28.6128 6.25064 -30.5942C9.37737 -31.649 13.7827 -30.6497 15.4767 -27.5699C16.4369 -25.8239 16.7102 -23.7031 18.0185 -22.1449C19.6434 -20.2096 21.9129 -18.6829 24.4203 -18.2379C26.9666 -17.786 29.8374 -17.7645 32.4106 -18.0614C34.114 -18.2579 35.767 -18.7652 37.4826 -18.8616C41.3379 -19.0782 44.0582 -18.5486 45.3436 -14.6134C47.0356 -9.43312 44.1423 -5.09396 39.1301 -3.90464C34.617 -2.83373 30.1982 -0.438049 27.4681 3.46206C25.7347 5.93834 23.3967 7.84853 20.325 8.54579C17.5676 9.1717 14.186 9.2296 11.5109 8.21629C10.4208 7.80338 9.62671 6.99252 8.73366 6.27458C6.26642 4.29111 4.95251 1.40853 4.67374 -1.72758C4.50478 -3.62842 4.89339 -5.58497 4.43838 -7.45854C3.76947 -10.2129 1.63196 -12.7716 -0.868932 -14.0956Z" fill="url(#paint0_linear_6308_96533)"/>
</g>
</g>
<path d="M0.5 8C0.5 3.85786 3.85786 0.5 8 0.5H32C36.1421 0.5 39.5 3.85786 39.5 8V32C39.5 36.1421 36.1421 39.5 32 39.5H8C3.85786 39.5 0.5 36.1421 0.5 32V8Z" stroke="#1E293B"/>
<path d="M52.2 19.76C50.1 19.76 48.82 18.54 48.82 16.68C48.82 14.86 50.14 13.72 52.48 13.54L55.44 13.32V13.1C55.44 11.76 54.64 11.22 53.4 11.22C51.96 11.22 51.16 11.82 51.16 12.86H49.08C49.08 10.72 50.84 9.32 53.52 9.32C56.18 9.32 57.82 10.76 57.82 13.5V19.5H55.68L55.5 18.04C55.08 19.06 53.74 19.76 52.2 19.76ZM53 17.92C54.5 17.92 55.46 17.02 55.46 15.5V14.98L53.4 15.14C51.88 15.28 51.3 15.78 51.3 16.58C51.3 17.48 51.9 17.92 53 17.92ZM62.677 19.5H60.257V4.62H62.677V19.5ZM64.6766 14.34C64.6766 11.46 66.5566 9.3 69.3766 9.3C70.8566 9.3 72.0166 9.92 72.5966 10.98L72.7366 9.62H74.9966V19C74.9966 22.3 73.0166 24.36 69.8166 24.36C66.9766 24.36 65.0366 22.74 64.7366 20.1H67.1766C67.3366 21.38 68.3166 22.14 69.8166 22.14C71.4966 22.14 72.5766 21.08 72.5766 19.44V17.8C71.9566 18.72 70.7366 19.3 69.3166 19.3C66.5166 19.3 64.6766 17.2 64.6766 14.34ZM67.1366 14.28C67.1366 15.94 68.1966 17.18 69.7966 17.18C71.4766 17.18 72.5166 16 72.5166 14.28C72.5166 12.6 71.4966 11.44 69.7966 11.44C68.1766 11.44 67.1366 12.66 67.1366 14.28ZM76.9417 14.54C76.9417 11.46 79.1617 9.34 82.2217 9.34C85.2817 9.34 87.5017 11.46 87.5017 14.54C87.5017 17.62 85.2817 19.74 82.2217 19.74C79.1617 19.74 76.9417 17.62 76.9417 14.54ZM79.3817 14.54C79.3817 16.34 80.5417 17.56 82.2217 17.56C83.9017 17.56 85.0617 16.34 85.0617 14.54C85.0617 12.74 83.9017 11.52 82.2217 11.52C80.5417 11.52 79.3817 12.74 79.3817 14.54ZM95.6358 9.58V11.84H94.7358C92.9758 11.84 91.8758 12.78 91.8758 14.7V19.5H89.4358V9.64H91.7358L91.8758 11.08C92.2958 10.1 93.2358 9.44 94.5558 9.44C94.8958 9.44 95.2358 9.48 95.6358 9.58ZM98.5073 7.64C97.6673 7.64 97.0073 6.98 97.0073 6.16C97.0073 5.34 97.6673 4.7 98.5073 4.7C99.3073 4.7 99.9673 5.34 99.9673 6.16C99.9673 6.98 99.3073 7.64 98.5073 7.64ZM97.2873 19.5V9.62H99.7273V19.5H97.2873ZM105.608 19.5H103.168V11.66H101.268V9.62H103.168V6.54H105.608V9.62H107.528V11.66H105.608V19.5ZM111.485 19.5H109.045V4.62H111.505V10.9C112.125 9.94 113.285 9.32 114.705 9.32C117.145 9.32 118.425 10.86 118.425 13.42V19.5H115.985V14C115.985 12.34 115.165 11.54 113.925 11.54C112.385 11.54 111.485 12.62 111.485 14.1V19.5ZM123.263 19.5H120.823V9.62H123.063L123.263 10.78C123.763 9.96 124.763 9.32 126.183 9.32C127.683 9.32 128.723 10.06 129.243 11.2C129.743 10.06 130.903 9.32 132.403 9.32C134.803 9.32 136.123 10.76 136.123 13.04V19.5H133.703V13.68C133.703 12.26 132.943 11.52 131.783 11.52C130.603 11.52 129.703 12.28 129.703 13.9V19.5H127.263V13.66C127.263 12.28 126.523 11.54 125.363 11.54C124.203 11.54 123.263 12.3 123.263 13.9V19.5ZM139.738 7.64C138.898 7.64 138.238 6.98 138.238 6.16C138.238 5.34 138.898 4.7 139.738 4.7C140.538 4.7 141.198 5.34 141.198 6.16C141.198 6.98 140.538 7.64 139.738 7.64ZM138.518 19.5V9.62H140.958V19.5H138.518ZM142.899 14.54C142.899 11.48 144.919 9.32 147.839 9.32C150.539 9.32 152.379 10.82 152.639 13.2H150.199C149.919 12.08 149.099 11.5 147.939 11.5C146.379 11.5 145.339 12.68 145.339 14.54C145.339 16.4 146.299 17.56 147.859 17.56C149.079 17.56 149.939 16.96 150.199 15.88H152.659C152.359 18.18 150.439 19.76 147.859 19.76C144.859 19.76 142.899 17.68 142.899 14.54Z" fill="#020817"/>
<path d="M51.36 35.708C49.68 35.708 48.656 34.732 48.656 33.244C48.656 31.788 49.712 30.876 51.584 30.732L53.952 30.556V30.38C53.952 29.308 53.312 28.876 52.32 28.876C51.168 28.876 50.528 29.356 50.528 30.188H48.864C48.864 28.476 50.272 27.356 52.416 27.356C54.544 27.356 55.856 28.508 55.856 30.7V35.5H54.144L54 34.332C53.664 35.148 52.592 35.708 51.36 35.708ZM52 34.236C53.2 34.236 53.968 33.516 53.968 32.3V31.884L52.32 32.012C51.104 32.124 50.64 32.524 50.64 33.164C50.64 33.884 51.12 34.236 52 34.236ZM62.7336 27.564V29.372H62.0136C60.6056 29.372 59.7256 30.124 59.7256 31.66V35.5H57.7736V27.612H59.6136L59.7256 28.764C60.0616 27.98 60.8136 27.452 61.8696 27.452C62.1416 27.452 62.4136 27.484 62.7336 27.564ZM67.3253 35.708C64.9733 35.708 63.3253 33.996 63.3253 31.548C63.3253 29.068 64.9413 27.356 67.2613 27.356C69.6293 27.356 71.1333 28.94 71.1333 31.404V31.996L65.1813 32.012C65.3253 33.404 66.0613 34.108 67.3573 34.108C68.4293 34.108 69.1333 33.692 69.3573 32.94H71.1653C70.8293 34.668 69.3893 35.708 67.3253 35.708ZM67.2773 28.956C66.1253 28.956 65.4213 29.58 65.2293 30.764H69.1973C69.1973 29.676 68.4453 28.956 67.2773 28.956ZM74.6475 35.5H72.6955V27.596H74.5035L74.6635 28.62C75.1595 27.82 76.1195 27.356 77.1915 27.356C79.1755 27.356 80.1995 28.588 80.1995 30.636V35.5H78.2475V31.1C78.2475 29.772 77.5915 29.132 76.5835 29.132C75.3835 29.132 74.6475 29.964 74.6475 31.244V35.5ZM84.4694 35.708C82.7894 35.708 81.7654 34.732 81.7654 33.244C81.7654 31.788 82.8214 30.876 84.6934 30.732L87.0614 30.556V30.38C87.0614 29.308 86.4214 28.876 85.4294 28.876C84.2774 28.876 83.6374 29.356 83.6374 30.188H81.9734C81.9734 28.476 83.3814 27.356 85.5254 27.356C87.6534 27.356 88.9654 28.508 88.9654 30.7V35.5H87.2534L87.1094 34.332C86.7734 35.148 85.7014 35.708 84.4694 35.708ZM85.1094 34.236C86.3094 34.236 87.0774 33.516 87.0774 32.3V31.884L85.4294 32.012C84.2134 32.124 83.7494 32.524 83.7494 33.164C83.7494 33.884 84.2294 34.236 85.1094 34.236Z" fill="#3259E8"/>
<defs>
<filter id="filter0_f_6308_96533" x="-35.2237" y="-59.2237" width="109.276" height="96.4474" filterUnits="userSpaceOnUse" color-interpolation-filters="sRGB">
<feFlood flood-opacity="0" result="BackgroundImageFix"/>
<feBlend mode="normal" in="SourceGraphic" in2="BackgroundImageFix" result="shape"/>
<feGaussianBlur stdDeviation="14.1118" result="effect1_foregroundBlur_6308_96533"/>
</filter>
<linearGradient id="paint0_linear_6308_96533" x1="19.4143" y1="-31" x2="19.4143" y2="9" gradientUnits="userSpaceOnUse">
<stop stop-color="#3259E8"/>
<stop offset="1" stop-color="#0D1D57"/>
</linearGradient>
<clipPath id="clip0_6308_96533">
<path d="M0 8C0 3.58172 3.58172 0 8 0H32C36.4183 0 40 3.58172 40 8V32C40 36.4183 36.4183 40 32 40H8C3.58172 40 0 36.4183 0 32V8Z" fill="white"/>
</clipPath>
</defs>
</svg>
