<svg width="17" height="16" viewBox="0 0 17 16" fill="none" xmlns="http://www.w3.org/2000/svg">
<path fill-rule="evenodd" clip-rule="evenodd" d="M3.1665 3.33333C2.79831 3.33333 2.49984 3.63181 2.49984 4V12C2.49984 12.3682 2.79831 12.6667 3.1665 12.6667H13.8332C14.2014 12.6667 14.4998 12.3682 14.4998 12V4C14.4998 3.63181 14.2014 3.33333 13.8332 3.33333H3.1665ZM1.1665 4C1.1665 2.89543 2.06193 2 3.1665 2H13.8332C14.9377 2 15.8332 2.89543 15.8332 4V12C15.8332 13.1046 14.9377 14 13.8332 14H3.1665C2.06193 14 1.1665 13.1046 1.1665 12V4Z" fill="#94A3B8"/>
<path fill-rule="evenodd" clip-rule="evenodd" d="M1.27058 4.3092C1.46805 3.99844 1.88005 3.90661 2.19081 4.10408L8.16869 7.90274C8.26808 7.96462 8.38282 7.99743 8.49992 7.99743C8.61702 7.99743 8.73176 7.96462 8.83115 7.90274C8.83165 7.90243 8.83214 7.90212 8.83264 7.90181L14.809 4.10408C15.1198 3.90661 15.5318 3.99844 15.7293 4.3092C15.9267 4.61996 15.8349 5.03195 15.5241 5.22942L9.54055 9.03171C9.22864 9.22713 8.868 9.33076 8.49992 9.33076C8.13185 9.33076 7.77121 9.22712 7.4593 9.0317L7.4557 9.02944L1.4757 5.22942C1.16495 5.03195 1.07311 4.61996 1.27058 4.3092Z" fill="#94A3B8"/>
</svg>
