<svg width="20" height="21" viewBox="0 0 20 21" fill="none" xmlns="http://www.w3.org/2000/svg">
<path fill-rule="evenodd" clip-rule="evenodd" d="M4.16675 3.3737C3.70651 3.3737 3.33341 3.74679 3.33341 4.20703V15.8737C3.33341 16.3339 3.70651 16.707 4.16675 16.707H15.8334C16.2937 16.707 16.6667 16.3339 16.6667 15.8737V4.20703C16.6667 3.74679 16.2937 3.3737 15.8334 3.3737H4.16675ZM1.66675 4.20703C1.66675 2.82632 2.78604 1.70703 4.16675 1.70703H15.8334C17.2141 1.70703 18.3334 2.82632 18.3334 4.20703V15.8737C18.3334 17.2544 17.2141 18.3737 15.8334 18.3737H4.16675C2.78604 18.3737 1.66675 17.2544 1.66675 15.8737V4.20703Z" fill="#4E7AFF"/>
<path fill-rule="evenodd" clip-rule="evenodd" d="M5.83325 6.70833C5.83325 6.2481 6.20635 5.875 6.66659 5.875H13.3333C13.7935 5.875 14.1666 6.2481 14.1666 6.70833C14.1666 7.16857 13.7935 7.54167 13.3333 7.54167H7.49992V13.375C7.49992 13.8352 7.12682 14.2083 6.66659 14.2083C6.20635 14.2083 5.83325 13.8352 5.83325 13.375V6.70833Z" fill="#4E7AFF"/>
<path fill-rule="evenodd" clip-rule="evenodd" d="M6.07733 6.11908C6.40277 5.79364 6.9304 5.79364 7.25584 6.11908L13.9225 12.7857C14.2479 13.1112 14.2479 13.6388 13.9225 13.9643C13.5971 14.2897 13.0694 14.2897 12.744 13.9643L6.07733 7.29759C5.75189 6.97215 5.75189 6.44451 6.07733 6.11908Z" fill="#4E7AFF"/>
</svg>
