<svg width="17" height="16" viewBox="0 0 17 16" fill="none" xmlns="http://www.w3.org/2000/svg">
<path fill-rule="evenodd" clip-rule="evenodd" d="M3.8335 7.99935C3.46531 7.99935 3.16683 8.29783 3.16683 8.66602V13.3327C3.16683 13.7009 3.46531 13.9993 3.8335 13.9993H13.1668C13.535 13.9993 13.8335 13.7009 13.8335 13.3327V8.66602C13.8335 8.29783 13.535 7.99935 13.1668 7.99935H3.8335ZM1.8335 8.66602C1.8335 7.56145 2.72893 6.66602 3.8335 6.66602H13.1668C14.2714 6.66602 15.1668 7.56145 15.1668 8.66602V13.3327C15.1668 14.4373 14.2714 15.3327 13.1668 15.3327H3.8335C2.72893 15.3327 1.8335 14.4373 1.8335 13.3327V8.66602Z" fill="#94A3B8"/>
<path fill-rule="evenodd" clip-rule="evenodd" d="M8.5 1.99935C7.79276 1.99935 7.11448 2.2803 6.61438 2.7804C6.11428 3.28049 5.83333 3.95877 5.83333 4.66602V7.33268C5.83333 7.70087 5.53486 7.99935 5.16667 7.99935C4.79848 7.99935 4.5 7.70087 4.5 7.33268V4.66602C4.5 3.60515 4.92143 2.58773 5.67157 1.83759C6.42172 1.08744 7.43913 0.666016 8.5 0.666016C9.56087 0.666016 10.5783 1.08744 11.3284 1.83759C12.0786 2.58773 12.5 3.60515 12.5 4.66602V7.33268C12.5 7.70087 12.2015 7.99935 11.8333 7.99935C11.4651 7.99935 11.1667 7.70087 11.1667 7.33268V4.66602C11.1667 3.95877 10.8857 3.28049 10.3856 2.7804C9.88552 2.2803 9.20724 1.99935 8.5 1.99935Z" fill="#94A3B8"/>
</svg>
