<svg width="40" height="40" viewBox="0 0 40 40" fill="none" xmlns="http://www.w3.org/2000/svg">
<g clip-path="url(#clip0_6248_56165)">
<path d="M0 8C0 3.58172 3.58172 0 8 0H32C36.4183 0 40 3.58172 40 8V32C40 36.4183 36.4183 40 32 40H8C3.58172 40 0 36.4183 0 32V8Z" fill="#020817"/>
<path d="M12.12 23.208V24.874L5.12 22.41V20.604L12.12 18.154V19.82L6.8 21.514L12.12 23.208ZM16.1822 25.182C14.7122 25.182 13.8162 24.328 13.8162 23.026C13.8162 21.752 14.7402 20.954 16.3782 20.828L18.4502 20.674V20.52C18.4502 19.582 17.8902 19.204 17.0222 19.204C16.0142 19.204 15.4542 19.624 15.4542 20.352H13.9982C13.9982 18.854 15.2302 17.874 17.1062 17.874C18.9682 17.874 20.1162 18.882 20.1162 20.8V25H18.6182L18.4922 23.978C18.1982 24.692 17.2602 25.182 16.1822 25.182ZM16.7422 23.894C17.7922 23.894 18.4642 23.264 18.4642 22.2V21.836L17.0222 21.948C15.9582 22.046 15.5522 22.396 15.5522 22.956C15.5522 23.586 15.9722 23.894 16.7422 23.894ZM25.6021 20.38H21.3181V19.498L23.5721 17.622C24.1321 17.16 24.3841 16.754 24.3841 16.222C24.3841 15.522 24.0481 15.144 23.4181 15.144C22.7741 15.144 22.3961 15.578 22.3961 16.348H21.2481C21.2901 14.962 22.1161 14.094 23.4181 14.094C24.7341 14.094 25.5461 14.878 25.5461 16.152C25.5461 16.964 25.1401 17.636 24.3701 18.28L23.1101 19.33H25.6021V20.38ZM34.0634 22.41L27.0634 24.874V23.208L32.3834 21.514L27.0634 19.82V18.154L34.0634 20.604V22.41Z" fill="white"/>
<g filter="url(#filter0_f_6248_56165)">
<path d="M-0.868932 -14.0956C-2.71568 -15.0733 -4.99388 -14.7546 -7 -14.7546C-7 -16.3238 -5.7815 -17.3885 -5.11714 -18.791C-2.59774 -24.1097 0.377263 -28.6128 6.25064 -30.5942C9.37737 -31.649 13.7827 -30.6497 15.4767 -27.5699C16.4369 -25.8239 16.7102 -23.7031 18.0185 -22.1449C19.6434 -20.2096 21.9129 -18.6829 24.4203 -18.2379C26.9666 -17.786 29.8374 -17.7645 32.4106 -18.0614C34.114 -18.2579 35.767 -18.7652 37.4826 -18.8616C41.3379 -19.0782 44.0582 -18.5486 45.3436 -14.6134C47.0356 -9.43312 44.1423 -5.09396 39.1301 -3.90464C34.617 -2.83373 30.1982 -0.438049 27.4681 3.46206C25.7347 5.93834 23.3967 7.84853 20.325 8.54579C17.5676 9.1717 14.186 9.2296 11.5109 8.21629C10.4208 7.80338 9.62671 6.99252 8.73366 6.27458C6.26642 4.29111 4.95251 1.40853 4.67374 -1.72758C4.50478 -3.62842 4.89339 -5.58497 4.43838 -7.45854C3.76947 -10.2129 1.63196 -12.7716 -0.868932 -14.0956Z" fill="url(#paint0_linear_6248_56165)"/>
</g>
</g>
<path d="M0.5 8C0.5 3.85786 3.85786 0.5 8 0.5H32C36.1421 0.5 39.5 3.85786 39.5 8V32C39.5 36.1421 36.1421 39.5 32 39.5H8C3.85786 39.5 0.5 36.1421 0.5 32V8Z" stroke="#1E293B"/>
<defs>
<filter id="filter0_f_6248_56165" x="-35.2237" y="-59.2237" width="109.276" height="96.4474" filterUnits="userSpaceOnUse" color-interpolation-filters="sRGB">
<feFlood flood-opacity="0" result="BackgroundImageFix"/>
<feBlend mode="normal" in="SourceGraphic" in2="BackgroundImageFix" result="shape"/>
<feGaussianBlur stdDeviation="14.1118" result="effect1_foregroundBlur_6248_56165"/>
</filter>
<linearGradient id="paint0_linear_6248_56165" x1="19.4143" y1="-31" x2="19.4143" y2="9" gradientUnits="userSpaceOnUse">
<stop stop-color="#3259E8"/>
<stop offset="1" stop-color="#0D1D57"/>
</linearGradient>
<clipPath id="clip0_6248_56165">
<path d="M0 8C0 3.58172 3.58172 0 8 0H32C36.4183 0 40 3.58172 40 8V32C40 36.4183 36.4183 40 32 40H8C3.58172 40 0 36.4183 0 32V8Z" fill="white"/>
</clipPath>
</defs>
</svg>
