<svg width="272" height="213" viewBox="0 0 272 213" fill="none" xmlns="http://www.w3.org/2000/svg">
<g clip-path="url(#clip0_6195_72835)">
<path d="M6.72983 78.4351C3.27099 53.8242 20.4182 31.0691 45.0291 27.6103L193.569 6.73429C218.18 3.27545 240.935 20.4226 244.394 45.0336L265.27 193.574C268.729 218.185 251.582 240.94 226.971 244.399L78.4306 265.275C53.8197 268.733 31.0646 251.586 27.6058 226.975L6.72983 78.4351Z" fill="#020817"/>
<path d="M96.3312 160.918L97.5733 169.756L58.6011 161.903L57.2546 152.323L92.563 134.106L93.8052 142.944L66.8455 155.898L96.3312 160.918ZM119.353 168.361C111.554 169.457 106.164 165.595 105.194 158.688C104.244 151.929 108.551 147.007 117.146 145.117L128.024 142.755L127.909 141.938C127.209 136.962 123.957 135.374 119.352 136.022C114.005 136.773 111.347 139.419 111.89 143.281L104.166 144.366C103.049 136.419 108.854 130.302 118.806 128.903C128.684 127.515 135.526 132.007 136.956 142.182L140.087 164.463L132.14 165.58L130.71 160.252C129.682 164.259 125.072 167.558 119.353 168.361ZM121.363 161.111C126.934 160.328 130.029 156.485 129.236 150.84L128.964 148.909L121.398 150.579C115.826 151.892 113.934 154.051 114.351 157.022C114.821 160.364 117.278 161.685 121.363 161.111ZM165.745 135.863L143.019 139.057L142.361 134.378L152.92 122.746C155.546 119.877 156.58 117.536 156.184 114.713C155.662 111 153.598 109.245 150.255 109.715C146.839 110.195 145.157 112.779 145.731 116.864L139.641 117.72C138.831 110.336 142.565 105.115 149.473 104.144C156.454 103.163 161.346 106.717 162.296 113.476C162.901 117.783 161.249 121.651 157.644 125.641L151.742 132.151L164.963 130.293L165.745 135.863ZM212.146 140.324L176.848 158.615L175.606 149.776L202.565 136.823L173.08 131.803L171.838 122.965L210.799 130.743L212.146 140.324Z" fill="white"/>
<g filter="url(#filter0_f_6195_72835)">
<path d="M-10.1163 -18.0171C-17.4845 -20.684 -25.7783 -18.3115 -33.228 -17.2645C-34.0469 -23.0916 -30.0777 -27.6813 -28.3425 -33.2363C-21.7626 -54.3023 -13.0651 -72.5772 7.71168 -83.0004C18.7723 -88.5492 35.6531 -87.1376 43.551 -76.5845C48.0282 -70.602 50.1496 -62.8692 55.8215 -57.7653C62.8655 -51.4268 72.0902 -46.942 81.6334 -46.598C91.3251 -46.2486 101.997 -47.667 111.398 -50.1126C117.621 -51.7315 123.494 -54.478 129.815 -55.7313C144.018 -58.5476 154.397 -58.0006 161.224 -44.0582C170.211 -25.7042 161.731 -8.0807 143.739 -1.04828C127.538 5.28394 112.38 16.4865 104.277 32.3944C99.1323 42.4947 91.447 50.8084 80.4041 55.0008C70.4912 58.7642 57.9638 60.7441 47.5008 58.3773C43.2372 57.4128 39.8652 54.8162 36.1742 52.6162C25.9769 46.5382 19.5933 36.5194 16.9213 25.019C15.3018 18.0484 15.7238 10.5799 13.0563 3.85986C9.13486 -6.01926 -0.138219 -14.4056 -10.1163 -18.0171Z" fill="url(#paint0_linear_6195_72835)"/>
</g>
</g>
<path d="M8.58658 78.1742C5.27186 54.5887 21.7046 32.7817 45.2901 29.467L193.83 8.59104C217.416 5.27632 239.223 21.709 242.537 45.2945L263.413 193.835C266.728 217.42 250.295 239.227 226.71 242.542L78.1697 263.418C54.5842 266.733 32.7773 250.3 29.4625 226.714L8.58658 78.1742Z" stroke="#1E293B" stroke-width="3.75"/>
<defs>
<filter id="filter0_f_6195_72835" x="-139.177" y="-192.03" width="409.856" height="357.271" filterUnits="userSpaceOnUse" color-interpolation-filters="sRGB">
<feFlood flood-opacity="0" result="BackgroundImageFix"/>
<feBlend mode="normal" in="SourceGraphic" in2="BackgroundImageFix" result="shape"/>
<feGaussianBlur stdDeviation="52.9194" result="effect1_foregroundBlur_6195_72835"/>
</filter>
<linearGradient id="paint0_linear_6195_72835" x1="56.3833" y1="-91.3774" x2="77.2592" y2="57.1628" gradientUnits="userSpaceOnUse">
<stop stop-color="#3259E8"/>
<stop offset="1" stop-color="#0D1D57"/>
</linearGradient>
<clipPath id="clip0_6195_72835">
<path d="M6.72983 78.4351C3.27099 53.8242 20.4182 31.0691 45.0291 27.6103L193.569 6.73429C218.18 3.27545 240.935 20.4226 244.394 45.0336L265.27 193.574C268.729 218.185 251.582 240.94 226.971 244.399L78.4306 265.275C53.8197 268.733 31.0646 251.586 27.6058 226.975L6.72983 78.4351Z" fill="white"/>
</clipPath>
</defs>
</svg>
