<svg width="64" height="64" viewBox="0 0 64 64" fill="none" xmlns="http://www.w3.org/2000/svg">
<g clip-path="url(#clip0_6042_59160)">
<path d="M0 12C0 5.37258 5.37258 0 12 0H52C58.6274 0 64 5.37258 64 12V52C64 58.6274 58.6274 64 52 64H12C5.37258 64 0 58.6274 0 52V12Z" fill="#020817"/>
<path d="M20.6 37.44V39.82L10.6 36.3V33.72L20.6 30.22V32.6L13 35.02L20.6 37.44ZM26.4031 40.26C24.3031 40.26 23.0231 39.04 23.0231 37.18C23.0231 35.36 24.3431 34.22 26.6831 34.04L29.6431 33.82V33.6C29.6431 32.26 28.8431 31.72 27.6031 31.72C26.1631 31.72 25.3631 32.32 25.3631 33.36H23.2831C23.2831 31.22 25.0431 29.82 27.7231 29.82C30.3831 29.82 32.0231 31.26 32.0231 34V40H29.8831L29.7031 38.54C29.2831 39.56 27.9431 40.26 26.4031 40.26ZM27.2031 38.42C28.7031 38.42 29.6631 37.52 29.6631 36V35.48L27.6031 35.64C26.0831 35.78 25.5031 36.28 25.5031 37.08C25.5031 37.98 26.1031 38.42 27.2031 38.42ZM39.8602 33.4H33.7402V32.14L36.9602 29.46C37.7602 28.8 38.1202 28.22 38.1202 27.46C38.1202 26.46 37.6402 25.92 36.7402 25.92C35.8202 25.92 35.2802 26.54 35.2802 27.64H33.6402C33.7002 25.66 34.8802 24.42 36.7402 24.42C38.6202 24.42 39.7802 25.54 39.7802 27.36C39.7802 28.52 39.2002 29.48 38.1002 30.4L36.3002 31.9H39.8602V33.4ZM51.9477 36.3L41.9477 39.82V37.44L49.5477 35.02L41.9477 32.6V30.22L51.9477 33.72V36.3Z" fill="white"/>
<g filter="url(#filter0_f_6042_59160)">
<path d="M-0.868931 -14.0956C-2.71568 -15.0733 -4.99388 -14.7546 -7 -14.7546C-7 -16.3238 -5.7815 -17.3885 -5.11714 -18.791C-2.59774 -24.1097 0.377263 -28.6128 6.25064 -30.5942C9.37737 -31.649 13.7827 -30.6497 15.4767 -27.5699C16.4369 -25.8239 16.7102 -23.7031 18.0185 -22.1449C19.6434 -20.2096 21.9129 -18.6829 24.4203 -18.2379C26.9666 -17.786 29.8374 -17.7645 32.4107 -18.0614C34.114 -18.2579 35.767 -18.7652 37.4826 -18.8616C41.3379 -19.0782 44.0582 -18.5486 45.3436 -14.6134C47.0356 -9.43312 44.1423 -5.09396 39.1301 -3.90464C34.617 -2.83373 30.1982 -0.438049 27.4681 3.46206C25.7347 5.93834 23.3967 7.84853 20.325 8.54579C17.5676 9.1717 14.186 9.2296 11.5109 8.21629C10.4208 7.80338 9.62671 6.99252 8.73366 6.27458C6.26642 4.29111 4.95251 1.40853 4.67374 -1.72758C4.50478 -3.62842 4.89339 -5.58497 4.43839 -7.45854C3.76948 -10.2129 1.63196 -12.7716 -0.868931 -14.0956Z" fill="url(#paint0_linear_6042_59160)"/>
</g>
</g>
<path d="M0.5 12C0.5 5.64873 5.64873 0.5 12 0.5H52C58.3513 0.5 63.5 5.64873 63.5 12V52C63.5 58.3513 58.3513 63.5 52 63.5H12C5.64873 63.5 0.5 58.3513 0.5 52V12Z" stroke="#1E293B"/>
<defs>
<filter id="filter0_f_6042_59160" x="-35.2237" y="-59.2237" width="109.276" height="96.4474" filterUnits="userSpaceOnUse" color-interpolation-filters="sRGB">
<feFlood flood-opacity="0" result="BackgroundImageFix"/>
<feBlend mode="normal" in="SourceGraphic" in2="BackgroundImageFix" result="shape"/>
<feGaussianBlur stdDeviation="14.1118" result="effect1_foregroundBlur_6042_59160"/>
</filter>
<linearGradient id="paint0_linear_6042_59160" x1="19.4143" y1="-31" x2="19.4143" y2="9" gradientUnits="userSpaceOnUse">
<stop stop-color="#3259E8"/>
<stop offset="1" stop-color="#0D1D57"/>
</linearGradient>
<clipPath id="clip0_6042_59160">
<path d="M0 12C0 5.37258 5.37258 0 12 0H52C58.6274 0 64 5.37258 64 12V52C64 58.6274 58.6274 64 52 64H12C5.37258 64 0 58.6274 0 52V12Z" fill="white"/>
</clipPath>
</defs>
</svg>
