<svg width="64" height="65" viewBox="0 0 64 65" fill="none" xmlns="http://www.w3.org/2000/svg">
<path d="M54.4538 45.0602C54.8153 44.4339 55.04 43.7282 55.04 43.0946V21.0983C55.04 20.4646 54.8156 19.7591 54.4539 19.1328L32 32.0965L54.4538 45.0602Z" fill="#00599C"/>
<path d="M33.9952 57.5498L53.0446 46.5517C53.5934 46.2349 54.0921 45.6878 54.4537 45.0613L31.9999 32.0977L9.54614 45.0615C9.9077 45.6878 10.4066 46.235 10.9552 46.5517L30.0046 57.5498C31.1019 58.1835 32.8979 58.1835 33.9952 57.5498Z" fill="#004482"/>
<path d="M54.4539 19.1336C54.0922 18.5072 53.5933 17.9601 53.0447 17.6432L33.9953 6.64518C32.8979 6.0115 31.102 6.0115 30.0047 6.64518L10.9553 17.6432C9.85777 18.2768 8.95996 19.832 8.95996 21.0992V43.0955C8.95996 43.7292 9.18449 44.4348 9.5462 45.0611L32 32.0975L54.4539 19.1336Z" fill="#659AD2"/>
<path d="M31.9999 47.4583C23.5304 47.4583 16.6399 40.5678 16.6399 32.0983C16.6399 23.6287 23.5304 16.7383 31.9999 16.7383C37.465 16.7383 42.562 19.6793 45.3015 24.4135L38.6541 28.2601C37.283 25.8904 34.7331 24.4183 31.9999 24.4183C27.7651 24.4183 24.3199 27.8634 24.3199 32.0983C24.3199 36.333 27.7651 39.7783 31.9999 39.7783C34.7334 39.7783 37.2833 38.3061 38.6545 35.936L45.302 39.7825C42.5625 44.5171 37.4653 47.4583 31.9999 47.4583Z" fill="white"/>
</svg>
