<svg width="64" height="65" viewBox="0 0 64 65" fill="none" xmlns="http://www.w3.org/2000/svg">
<path d="M53.4379 22.1141C53.4375 21.3038 53.2642 20.5877 52.9138 19.9733C52.5695 19.3689 52.0539 18.8623 51.3624 18.4619C45.6538 15.1703 39.9398 11.8888 34.2331 8.59391C32.6946 7.70571 31.203 7.73826 29.6759 8.63921C27.4037 9.97905 16.0278 16.4966 12.6379 18.46C11.2419 19.2684 10.5626 20.5052 10.5622 22.1126C10.5601 28.7322 10.5622 35.3517 10.5601 41.9712C10.5601 42.7638 10.7263 43.4661 11.0614 44.0712C11.4058 44.6938 11.9286 45.2143 12.6361 45.6238C16.0261 47.5873 27.4036 54.1043 29.6752 55.4446C31.203 56.3461 32.6946 56.3783 34.2336 55.4899C39.9405 52.1948 45.6549 48.9133 51.3642 45.6218C52.0717 45.2124 52.5945 44.6916 52.9389 44.0695C53.2735 43.4642 53.4401 42.7621 53.4401 41.9693C53.4401 41.9693 53.4401 28.7338 53.4379 22.1141Z" fill="#A179DC"/>
<path d="M32.0656 31.9766L11.0613 44.0704C11.4057 44.693 11.9285 45.2134 12.636 45.623C16.026 47.5864 27.4035 54.1034 29.6751 55.4438C31.2029 56.3452 32.6946 56.3774 34.2335 55.4891C39.9404 52.194 45.6548 48.9125 51.3641 45.6209C52.0716 45.2116 52.5944 44.6908 52.9388 44.0687L32.0656 31.9766Z" fill="#280068"/>
<path d="M53.4379 22.1135C53.4376 21.3031 53.2643 20.587 52.9138 19.9727L32.0657 31.9769L52.9389 44.0689C53.2735 43.4635 53.4397 42.7614 53.4401 41.9687C53.4401 41.9687 53.4401 28.7331 53.4379 22.1135Z" fill="#390091"/>
<path d="M44.4322 27.457V29.7176H46.6928V27.457H47.8231V29.7176H50.0837V30.8479H47.8231V33.1083H50.0837V34.2386H47.8231V36.4992H46.6928V34.2386H44.4322V36.4992H43.3019V34.2386H41.0415V33.1083H43.3019V30.8479H41.0415V29.7176H43.3019V27.457H44.4322ZM46.6928 30.8477H44.4322V33.1083H46.6928V30.8477Z" fill="white"/>
<path d="M32.1118 16.1037C38.008 16.1037 43.1558 19.3058 45.9132 24.0656L45.8864 24.0198L38.9489 28.0141C37.5822 25.7 35.0767 24.1382 32.2022 24.106L32.1116 24.1055C27.7285 24.1055 24.1751 27.6589 24.1751 32.042C24.1736 33.4235 24.5346 34.7813 25.2218 35.9797C26.5898 38.368 29.1617 39.9788 32.1118 39.9788C35.0802 39.9788 37.6666 38.3475 39.0276 35.9337L38.9945 35.9916L45.9214 40.0044C43.1943 44.7239 38.1169 47.9161 32.2893 47.9797L32.1118 47.9807C26.1969 47.9807 21.0345 44.7588 18.284 39.9739C16.9413 37.638 16.1731 34.9299 16.1731 32.042C16.1731 23.2396 23.3089 16.1035 32.1116 16.1035L32.1118 16.1037Z" fill="white"/>
</svg>
