<svg width="64" height="65" viewBox="0 0 64 65" fill="none" xmlns="http://www.w3.org/2000/svg">
<path d="M9.60557 28.0543C9.50342 28.0543 9.47788 28.0032 9.52896 27.9266L10.0653 27.2371C10.1164 27.1605 10.244 27.1094 10.3462 27.1094H19.4636C19.5658 27.1094 19.5913 27.186 19.5402 27.2626L19.1061 27.9266C19.055 28.0032 18.9273 28.0799 18.8507 28.0799L9.60557 28.0543Z" fill="#2DBCAF"/>
<path d="M5.74913 30.4039C5.64697 30.4039 5.62143 30.3529 5.67251 30.2762L6.20883 29.5867C6.25991 29.5101 6.3876 29.459 6.48976 29.459H18.1355C18.2377 29.459 18.2888 29.5356 18.2632 29.6122L18.0589 30.2252C18.0334 30.3273 17.9312 30.3784 17.8291 30.3784L5.74913 30.4039Z" fill="#2DBCAF"/>
<path d="M11.9295 32.7535C11.8274 32.7535 11.8019 32.6769 11.8529 32.6003L12.2105 31.9618C12.2616 31.8852 12.3637 31.8086 12.4659 31.8086H17.5737C17.6758 31.8086 17.7269 31.8852 17.7269 31.9874L17.6758 32.6003C17.6758 32.7025 17.5737 32.7791 17.4971 32.7791L11.9295 32.7535Z" fill="#2DBCAF"/>
<path d="M38.4391 27.5952C36.8301 28.0038 35.732 28.3103 34.1485 28.7189C33.7655 28.8211 33.7399 28.8466 33.4079 28.4635C33.0248 28.0294 32.7439 27.7484 32.2076 27.4931C30.5986 26.7013 29.0407 26.9312 27.585 27.8761C25.8484 28.9999 24.9545 30.6599 24.98 32.7286C25.0056 34.7717 26.4102 36.4573 28.4278 36.7382C30.1645 36.968 31.6202 36.3551 32.7694 35.0526C32.9993 34.7717 33.2036 34.4652 33.459 34.1077C32.5396 34.1077 31.3903 34.1077 28.53 34.1077C27.9936 34.1077 27.8659 33.7757 28.0447 33.3415C28.3767 32.5498 28.9897 31.2218 29.3472 30.5577C29.4238 30.4045 29.6026 30.1491 29.9857 30.1491C31.2882 30.1491 36.0895 30.1491 39.2819 30.1491C39.2308 30.8387 39.2308 31.5282 39.1287 32.2178C38.8477 34.0566 38.1582 35.7422 37.0345 37.2234C35.1956 39.6496 32.795 41.1564 29.7558 41.5651C27.253 41.8971 24.929 41.4118 22.8858 39.8795C20.996 38.4493 19.9233 36.5594 19.6424 34.2098C19.3104 31.4261 20.1276 28.9232 21.8132 26.7269C23.6265 24.3518 26.0271 22.845 28.9641 22.3086C31.3648 21.8745 33.6633 22.1554 35.732 23.56C37.0855 24.4539 38.056 25.6798 38.6945 27.161C38.8477 27.3909 38.7456 27.5186 38.4391 27.5952Z" fill="#2DBCAF"/>
<path d="M46.8925 41.7181C44.5685 41.667 42.4487 41.003 40.661 39.4707C39.1542 38.1682 38.2093 36.5082 37.9028 34.5417C37.4431 31.6558 38.2348 29.1019 39.9715 26.8289C41.8358 24.3771 44.0832 23.1002 47.1224 22.5639C49.7274 22.1042 52.1791 22.3596 54.401 23.8664C56.4186 25.2455 57.67 27.1098 58.002 29.5616C58.4362 33.0093 57.4401 35.8186 55.065 38.2193C53.3794 39.9304 51.3108 41.003 48.9356 41.4883C48.2461 41.616 47.5565 41.6415 46.8925 41.7181ZM52.9708 31.4004C52.9453 31.0684 52.9453 30.813 52.8942 30.5576C52.4345 28.0292 50.1104 26.599 47.6842 27.1609C45.3091 27.6972 43.7768 29.204 43.2149 31.6047C42.7552 33.5967 43.7257 35.6143 45.5645 36.4315C46.9691 37.0445 48.3738 36.9679 49.7274 36.2783C51.7449 35.2312 52.8431 33.5967 52.9708 31.4004Z" fill="#2DBCAF"/>
</svg>
