<svg width="64" height="65" viewBox="0 0 64 65" fill="none" xmlns="http://www.w3.org/2000/svg">
<path d="M44.5991 47.1041H44.406V46.9961H44.9258V47.1041H44.7341V47.6431H44.5991V47.1041ZM45.6359 47.1323H45.6329L45.4416 47.6432H45.354L45.164 47.1323H45.1616V47.6432H45.0344V46.9962H45.2216L45.3978 47.4543L45.5735 46.9962H45.76V47.6432H45.6358V47.1323H45.6359Z" fill="#E76F00"/>
<path d="M27.3132 33.873C27.3132 33.873 25.9698 34.6543 28.2693 34.9187C31.0552 35.2365 32.479 35.1909 35.549 34.6099C35.549 34.6099 36.3561 35.116 37.4833 35.5543C30.6012 38.5039 21.9077 35.3835 27.3132 33.873Z" fill="#5382A1"/>
<path d="M26.4724 30.0254C26.4724 30.0254 24.9656 31.1408 27.2669 31.3788C30.2428 31.6858 32.5929 31.7109 36.6596 30.9278C36.6596 30.9278 37.2221 31.4981 38.1065 31.8099C29.7856 34.2431 20.5176 32.0018 26.4724 30.0254Z" fill="#5382A1"/>
<path d="M33.562 23.4945C35.2577 25.4469 33.1164 27.2038 33.1164 27.2038C33.1164 27.2038 37.4222 24.981 35.4448 22.1975C33.5979 19.6018 32.1816 18.312 39.8489 13.8652C39.8489 13.8652 27.8137 16.8711 33.562 23.4945Z" fill="#E76F00"/>
<path d="M42.6641 36.7212C42.6641 36.7212 43.6583 37.5403 41.5692 38.1741C37.5968 39.3775 25.0354 39.7409 21.5459 38.222C20.2915 37.6763 22.6439 36.919 23.3838 36.7601C24.1555 36.5928 24.5965 36.624 24.5965 36.624C23.2015 35.6412 15.5798 38.5536 20.725 39.3876C34.7569 41.6632 46.3038 38.3629 42.6641 36.7212Z" fill="#5382A1"/>
<path d="M27.9593 26.037C27.9593 26.037 21.5698 27.5546 25.6966 28.1057C27.4391 28.339 30.9127 28.2862 34.1482 28.0151C36.7925 27.792 39.4477 27.3178 39.4477 27.3178C39.4477 27.3178 38.5153 27.7171 37.8407 28.1777C31.3523 29.8842 18.8178 29.0903 22.4263 27.3448C25.478 25.8696 27.9593 26.037 27.9593 26.037Z" fill="#5382A1"/>
<path d="M39.4214 32.4438C46.0172 29.0163 42.9675 25.7226 40.8389 26.1663C40.3172 26.2749 40.0846 26.369 40.0846 26.369C40.0846 26.369 40.2783 26.0656 40.6482 25.9343C44.8593 24.4538 48.0978 30.3007 39.2888 32.6165C39.2888 32.6166 39.3909 32.5253 39.4214 32.4438Z" fill="#5382A1"/>
<path d="M35.4447 6.68555C35.4447 6.68555 39.0976 10.3396 31.9801 15.9586C26.2727 20.4659 30.6787 23.0359 31.9778 25.9722C28.6462 22.9664 26.2013 20.3203 27.8416 17.8576C30.249 14.2425 36.9185 12.4898 35.4447 6.68555Z" fill="#E76F00"/>
<path d="M28.6075 41.7303C34.9386 42.1356 44.6608 41.5055 44.891 38.5098C44.891 38.5098 44.4484 39.6454 39.6587 40.5473C34.2549 41.5642 27.5902 41.4455 23.6372 40.7938C23.6373 40.7937 24.4464 41.4635 28.6075 41.7303Z" fill="#5382A1"/>
<path d="M27.5699 53.1767C26.9726 53.6947 26.3418 53.9855 25.7757 53.9855C24.9678 53.9855 24.5312 53.501 24.5312 52.7239C24.5312 51.8833 24.9989 51.2687 26.8754 51.2687H27.5698V53.1767H27.5699ZM29.2179 55.0361V49.2804C29.2179 47.8101 28.3793 46.8398 26.3574 46.8398C25.177 46.8398 24.143 47.1313 23.3026 47.503L23.5452 48.5219C24.2069 48.279 25.0634 48.0529 25.904 48.0529C27.0688 48.0529 27.5699 48.5219 27.5699 49.4914V50.2188H26.9885C24.1586 50.2188 22.8821 51.3174 22.8821 52.9662C22.8821 54.3892 23.7233 55.198 25.3073 55.198C26.3254 55.198 27.0855 54.7777 27.7959 54.1625L27.9249 55.0362H29.2179V55.0361Z" fill="#E76F00"/>
<path d="M34.7179 55.0368H32.6624L30.1887 46.9863H31.9837L33.5186 51.9326L33.8599 53.4202C34.6364 51.2694 35.1856 49.0874 35.4603 46.9863H37.2064C36.7386 49.6373 35.8967 52.5471 34.7179 55.0368Z" fill="#E76F00"/>
<path d="M42.6028 53.1767C42.0044 53.6947 41.3725 53.9855 40.8064 53.9855C39.9999 53.9855 39.5622 53.501 39.5622 52.7239C39.5622 51.8833 40.0311 51.2687 41.9073 51.2687H42.6028V53.1767ZM44.2506 55.0361V49.2804C44.2506 47.8101 43.41 46.8398 41.3904 46.8398C40.2092 46.8398 39.1748 47.1313 38.3348 47.503L38.577 48.5219C39.239 48.279 40.0971 48.0529 40.9371 48.0529C42.101 48.0529 42.6028 48.5219 42.6028 49.4914V50.2188H42.0206C39.1898 50.2188 37.9138 51.3174 37.9138 52.9662C37.9138 54.3892 38.7544 55.198 40.3381 55.198C41.3568 55.198 42.1165 54.7777 42.8283 54.1625L42.9577 55.0362H44.2506V55.0361Z" fill="#E76F00"/>
<path d="M21.0752 56.4037C20.6054 57.0897 19.8465 57.6323 19.0158 57.9394L18.2021 56.9818C18.8345 56.6574 19.3767 56.1334 19.6287 55.6453C19.8466 55.2112 19.9368 54.6518 19.9368 53.3139V44.123H21.6878V53.188C21.6877 54.9766 21.5447 55.6991 21.0752 56.4037Z" fill="#E76F00"/>
</svg>
