<svg width="64" height="65" viewBox="0 0 64 65" fill="none" xmlns="http://www.w3.org/2000/svg">
<g clip-path="url(#clip0_6139_67551)">
<path d="M11.3333 0.0410208H52.6667C54.1554 0.0395817 55.6297 0.339261 57.0054 0.922909C58.3811 1.50656 59.631 2.36271 60.6837 3.44238C61.7363 4.52205 62.5711 5.80403 63.1402 7.21496C63.7092 8.62589 64.0014 10.1381 64 11.665V52.4171C64.0014 53.944 63.7092 55.4561 63.1402 56.8671C62.5711 58.278 61.7363 59.56 60.6837 60.6396C59.631 61.7193 58.3811 62.5755 57.0054 63.1591C55.6297 63.7428 54.1554 64.0424 52.6667 64.041H11.3333C9.84463 64.0424 8.37026 63.7428 6.9946 63.1591C5.61894 62.5755 4.36901 61.7193 3.31633 60.6396C2.26366 59.56 1.4289 58.278 0.859846 56.8671C0.29079 55.4561 -0.00139809 53.944 5.02953e-06 52.4171V11.665C-0.00139809 10.1381 0.29079 8.62589 0.859846 7.21496C1.4289 5.80403 2.26366 4.52205 3.31633 3.44238C4.36901 2.36271 5.61894 1.50656 6.9946 0.922909C8.37026 0.339261 9.84463 0.0395817 11.3333 0.0410208Z" fill="#F7DF1E"/>
<path d="M43.1004 50.1176C44.3895 52.2225 46.0668 53.7697 49.0331 53.7697C51.525 53.7697 53.1169 52.5242 53.1169 50.8033C53.1169 48.7411 51.4814 48.0107 48.7385 46.811L47.235 46.1659C42.8952 44.317 40.0121 42.0008 40.0121 37.1043C40.0121 32.5938 43.4489 29.1602 48.8198 29.1602C52.6435 29.1602 55.3925 30.4909 57.3734 33.9754L52.6902 36.9824C51.6591 35.1335 50.5468 34.4051 48.8198 34.4051C47.0582 34.4051 45.9418 35.5226 45.9418 36.9824C45.9418 38.7866 47.0593 39.517 49.6396 40.6344L51.1431 41.2785C56.2529 43.4697 59.138 45.7036 59.138 50.7261C59.138 56.1407 54.8845 59.1071 49.1723 59.1071C43.587 59.1071 39.9786 56.4455 38.213 52.957L43.1004 50.1176ZM21.8555 50.6388C22.8002 52.315 23.6596 53.7321 25.7259 53.7321C27.7018 53.7321 28.9483 52.959 28.9483 49.953V29.5035H34.9622V50.0343C34.9622 56.2616 31.3112 59.0959 25.9819 59.0959C21.1667 59.0959 18.3781 56.604 16.96 53.6026L21.8555 50.6388Z" fill="black"/>
</g>
<defs>
<clipPath id="clip0_6139_67551">
<rect width="64" height="64" fill="white" transform="translate(0 0.0410156)"/>
</clipPath>
</defs>
</svg>
