<svg width="64" height="65" viewBox="0 0 64 65" fill="none" xmlns="http://www.w3.org/2000/svg">
<path d="M4.47998 32.0414C4.47998 39.9942 16.7362 46.4414 31.8544 46.4414C46.9726 46.4414 59.2289 39.9942 59.2289 32.0414C59.2289 24.0887 46.9726 17.6415 31.8544 17.6415C16.7362 17.6415 4.47998 24.0887 4.47998 32.0414Z" fill="url(#paint0_radial_6139_67556)"/>
<path d="M31.8544 45.373C46.3821 45.373 58.1595 39.4046 58.1595 32.0422C58.1595 24.6799 46.3821 18.7113 31.8544 18.7113C17.3267 18.7113 5.54932 24.6799 5.54932 32.0422C5.54932 39.4046 17.3267 45.373 31.8544 45.373Z" fill="#777BB3"/>
<path d="M19.3529 33.6944C20.5474 33.6944 21.4392 33.4741 22.0035 33.0398C22.5617 32.61 22.9472 31.8654 23.1493 30.8267C23.3377 29.8558 23.2659 29.1778 22.936 28.812C22.5987 28.4383 21.8694 28.2488 20.7684 28.2488H18.8594L17.8011 33.6944H19.3529ZM13.109 40.4023C13.0203 40.4023 12.9362 40.3627 12.8799 40.2942C12.8234 40.2258 12.8005 40.1357 12.8175 40.0487L15.6222 25.6178C15.6494 25.4783 15.7716 25.3775 15.9138 25.3775H21.9588C23.8586 25.3775 25.2727 25.8934 26.1615 26.9109C27.0551 27.9338 27.331 29.3636 26.9816 31.1605C26.8394 31.8926 26.5949 32.5725 26.2548 33.1812C25.9143 33.7906 25.4643 34.3545 24.917 34.8575C24.262 35.4705 23.5206 35.9151 22.7154 36.1767C21.9231 36.4348 20.9054 36.5657 19.6909 36.5657H17.2431L16.5441 40.1619C16.517 40.3016 16.3948 40.4023 16.2526 40.4023H13.109Z" fill="black"/>
<path d="M19.1042 28.5457H20.7683C22.0972 28.5457 22.5587 28.8373 22.7156 29.011C22.9758 29.2996 23.0249 29.9079 22.8577 30.7702C22.6697 31.7355 22.3214 32.42 21.8222 32.8043C21.3111 33.1978 20.4802 33.3972 19.3528 33.3972H18.1613L19.1042 28.5457ZM21.9587 25.0803H15.9137C15.6293 25.0803 15.3848 25.2819 15.3306 25.561L12.5258 39.9919C12.492 40.166 12.5377 40.3461 12.6505 40.4831C12.7633 40.62 12.9315 40.6992 13.1089 40.6992H16.2525C16.5369 40.6992 16.7814 40.4976 16.8356 40.2185L17.4879 36.8626H19.6908C20.9366 36.8626 21.9853 36.7267 22.8076 36.4589C23.6532 36.1841 24.4312 35.7183 25.1198 35.0743C25.6894 34.5504 26.1585 33.9623 26.5139 33.3261C26.8695 32.6898 27.1249 31.9802 27.2731 31.217C27.6409 29.3255 27.3421 27.8108 26.3851 26.7154C25.4374 25.6304 23.9481 25.0803 21.9587 25.0803ZM17.4406 33.9913H19.3528C20.6202 33.9913 21.5643 33.7526 22.1846 33.275C22.805 32.7974 23.2234 32.0003 23.4408 30.8832C23.6488 29.8108 23.5541 29.0539 23.1566 28.613C22.7585 28.1721 21.9626 27.9516 20.7683 27.9516H18.6145L17.4406 33.9913ZM21.9587 25.6744C23.7773 25.6744 25.1039 26.1516 25.9378 27.1062C26.7715 28.0607 27.0226 29.3931 26.6899 31.1037C26.553 31.8084 26.3214 32.4526 25.9954 33.0363C25.669 33.6204 25.2427 34.1544 24.716 34.6387C24.0883 35.2261 23.3909 35.6447 22.6236 35.894C21.8563 36.144 20.8789 36.2685 19.6908 36.2685H16.9981L16.2525 40.1052H13.1089L15.9137 25.6744H21.9587Z" fill="white"/>
<path d="M34.1894 36.5664C34.1007 36.5664 34.0167 36.5268 33.9603 36.4583C33.9038 36.3899 33.8809 36.2999 33.8979 36.2127L35.1386 29.8277C35.2566 29.2204 35.2275 28.7846 35.0567 28.6004C34.9521 28.4879 34.6381 28.299 33.7094 28.299H31.4617L29.9018 36.326C29.8747 36.4656 29.7524 36.5664 29.6102 36.5664H26.4914C26.4027 36.5664 26.3186 36.5268 26.2622 36.4583C26.2057 36.3899 26.1829 36.2998 26.1998 36.2127L29.0046 21.7819C29.0317 21.6424 29.154 21.5416 29.2962 21.5416H32.415C32.5037 21.5416 32.5878 21.5812 32.6442 21.6496C32.7006 21.7181 32.7235 21.8081 32.7066 21.8952L32.0297 25.3782H34.4478C36.2898 25.3782 37.539 25.703 38.2665 26.3711C39.0081 27.0527 39.2395 28.1425 38.9543 29.6106L37.6494 36.326C37.6222 36.4656 37.5001 36.5664 37.3578 36.5664H34.1894Z" fill="black"/>
<path d="M32.4149 21.2444H29.2961C29.0116 21.2444 28.7672 21.446 28.7129 21.7251L25.9081 36.156C25.8743 36.3301 25.92 36.5102 26.0329 36.6471C26.1458 36.7841 26.3139 36.8633 26.4913 36.8633H29.6101C29.8945 36.8633 30.1391 36.6617 30.1933 36.3826L31.7065 28.5959H33.7094C34.6364 28.5959 34.831 28.7939 34.8388 28.8024C34.895 28.8629 34.969 29.1431 34.8469 29.7709L33.6062 36.156C33.5723 36.3301 33.6181 36.5102 33.731 36.6471C33.8438 36.7841 34.0119 36.8633 34.1894 36.8633H37.3577C37.6421 36.8633 37.8866 36.6617 37.9409 36.3826L39.2457 29.6672C39.552 28.0909 39.29 26.9084 38.4674 26.1523C37.6825 25.4314 36.3676 25.081 34.4477 25.081H32.3899L32.9981 21.9518C33.0318 21.7777 32.9862 21.5975 32.8733 21.4606C32.7605 21.3237 32.5923 21.2444 32.4149 21.2444ZM32.4149 21.8385L31.6693 25.6751H34.4477C36.1959 25.6751 37.4018 25.9803 38.0654 26.5898C38.7291 27.1997 38.9279 28.1879 38.6627 29.5539L37.3577 36.2692H34.1894L35.4301 29.8842C35.5713 29.1579 35.5194 28.6624 35.2742 28.3983C35.029 28.1341 34.5073 28.0019 33.7094 28.0019H31.2167L29.6101 36.2692H26.4913L29.2961 21.8385H32.4149Z" fill="white"/>
<path d="M43.889 33.6944C45.0835 33.6944 45.9753 33.4741 46.5396 33.0398C47.0978 32.6101 47.4833 31.8655 47.6855 30.8267C47.8739 29.8558 47.8022 29.1778 47.4722 28.812C47.1348 28.4383 46.4055 28.2488 45.3045 28.2488H43.3955L42.3372 33.6944H43.889ZM37.6452 40.4023C37.5566 40.4023 37.4724 40.3627 37.4161 40.2942C37.3596 40.2258 37.3367 40.1357 37.3536 40.0487L40.1584 25.6178C40.1856 25.4783 40.3078 25.3775 40.45 25.3775H46.4949C48.3948 25.3775 49.8088 25.8934 50.6977 26.9109C51.5913 27.9337 51.8671 29.3635 51.5178 31.1605C51.3754 31.8926 51.131 32.5725 50.7909 33.1812C50.4504 33.7906 50.0004 34.3545 49.4532 34.8575C48.7981 35.4705 48.0567 35.9151 47.2516 36.1767C46.4592 36.4348 45.4416 36.5657 44.227 36.5657H41.7792L41.0804 40.1619C41.0532 40.3016 40.931 40.4023 40.7888 40.4023H37.6452Z" fill="black"/>
<path d="M43.6404 28.5457H45.3046C46.6334 28.5457 47.095 28.8373 47.2519 29.011C47.5121 29.2996 47.5613 29.9079 47.3939 30.7701C47.206 31.7355 46.8576 32.42 46.3585 32.8043C45.8474 33.1978 45.0165 33.3972 43.8891 33.3972H42.6977L43.6404 28.5457ZM46.495 25.0803H40.45C40.1657 25.0803 39.9212 25.2819 39.867 25.561L37.0622 39.9919C37.0283 40.166 37.0741 40.3461 37.1869 40.4831C37.2997 40.62 37.4678 40.6992 37.6453 40.6992H40.7888C41.0732 40.6992 41.3178 40.4976 41.372 40.2185L42.0242 36.8626H44.2271C45.4728 36.8626 46.5215 36.7267 47.3438 36.4589C48.1895 36.1841 48.9677 35.7182 49.6563 35.0741C50.2258 34.5503 50.6947 33.9623 51.0502 33.3261C51.4057 32.6898 51.6612 31.9802 51.8094 31.217C52.1772 29.3254 51.8784 27.8107 50.9214 26.7153C49.9736 25.6304 48.4844 25.0803 46.495 25.0803ZM41.977 33.9913H43.8891C45.1565 33.9913 46.1006 33.7526 46.7209 33.275C47.3414 32.7974 47.7597 32.0003 47.9771 30.8832C48.1852 29.8108 48.0905 29.0539 47.6928 28.613C47.2948 28.1721 46.4989 27.9516 45.3046 27.9516H43.1507L41.977 33.9913ZM46.495 25.6744C48.3135 25.6744 49.6402 26.1516 50.474 27.1062C51.3079 28.0607 51.5589 29.3931 51.2262 31.1037C51.0893 31.8084 50.8577 32.4526 50.5317 33.0363C50.2052 33.6204 49.779 34.1544 49.2523 34.6387C48.6245 35.2261 47.9272 35.6447 47.1599 35.894C46.3925 36.144 45.4152 36.2685 44.2271 36.2685H41.5344L40.7888 40.1052H37.6453L40.45 25.6744H46.495Z" fill="white"/>
<defs>
<radialGradient id="paint0_radial_6139_67556" cx="0" cy="0" r="1" gradientUnits="userSpaceOnUse" gradientTransform="translate(20.9157 22.704) scale(35.9465)">
<stop stop-color="#AEB2D5"/>
<stop offset="0.3" stop-color="#AEB2D5"/>
<stop offset="0.75" stop-color="#484C89"/>
<stop offset="1" stop-color="#484C89"/>
</radialGradient>
</defs>
</svg>
