<svg width="16" height="16" viewBox="0 0 16 16" fill="none" xmlns="http://www.w3.org/2000/svg">
<path fill-rule="evenodd" clip-rule="evenodd" d="M2.00016 1.33398C2.36835 1.33398 2.66683 1.63246 2.66683 2.00065V13.334H14.0002C14.3684 13.334 14.6668 13.6325 14.6668 14.0007C14.6668 14.3688 14.3684 14.6673 14.0002 14.6673H2.00016C1.63197 14.6673 1.3335 14.3688 1.3335 14.0007V2.00065C1.3335 1.63246 1.63197 1.33398 2.00016 1.33398Z" fill="#94A3B8"/>
<path fill-rule="evenodd" clip-rule="evenodd" d="M12.0002 5.33398C12.3684 5.33398 12.6668 5.63246 12.6668 6.00065V11.334C12.6668 11.7022 12.3684 12.0007 12.0002 12.0007C11.632 12.0007 11.3335 11.7022 11.3335 11.334V6.00065C11.3335 5.63246 11.632 5.33398 12.0002 5.33398Z" fill="#94A3B8"/>
<path fill-rule="evenodd" clip-rule="evenodd" d="M8.66667 2.66602C9.03486 2.66602 9.33333 2.96449 9.33333 3.33268V11.3327C9.33333 11.7009 9.03486 11.9993 8.66667 11.9993C8.29848 11.9993 8 11.7009 8 11.3327V3.33268C8 2.96449 8.29848 2.66602 8.66667 2.66602Z" fill="#94A3B8"/>
<path fill-rule="evenodd" clip-rule="evenodd" d="M5.33317 8.66602C5.70136 8.66602 5.99984 8.96449 5.99984 9.33268V11.3327C5.99984 11.7009 5.70136 11.9993 5.33317 11.9993C4.96498 11.9993 4.6665 11.7009 4.6665 11.3327V9.33268C4.6665 8.96449 4.96498 8.66602 5.33317 8.66602Z" fill="#94A3B8"/>
</svg>

