<svg width="16" height="16" viewBox="0 0 16 16" fill="none" xmlns="http://www.w3.org/2000/svg">
<path fill-rule="evenodd" clip-rule="evenodd" d="M4.6665 2.66732C4.48969 2.66732 4.32012 2.73756 4.1951 2.86258C4.07008 2.9876 3.99984 3.15717 3.99984 3.33398V12.8519L7.66908 10.7552C7.87403 10.638 8.12564 10.638 8.3306 10.7552L11.9998 12.8519V3.33398C11.9998 3.15717 11.9296 2.9876 11.8046 2.86258C11.6796 2.73756 11.51 2.66732 11.3332 2.66732H4.6665ZM3.25229 1.91977C3.62736 1.5447 4.13607 1.33398 4.6665 1.33398H11.3332C11.8636 1.33398 12.3723 1.5447 12.7474 1.91977C13.1225 2.29484 13.3332 2.80355 13.3332 3.33398V14.0007C13.3332 14.2383 13.2067 14.458 13.0011 14.5773C12.7956 14.6965 12.5421 14.6974 12.3357 14.5795L7.99984 12.1018L3.66393 14.5795C3.45759 14.6974 3.2041 14.6965 2.99855 14.5773C2.79301 14.458 2.6665 14.2383 2.6665 14.0007V3.33398C2.6665 2.80355 2.87722 2.29484 3.25229 1.91977Z" fill="#94A3B8"/>
</svg>

