<svg width="16" height="16" viewBox="0 0 16 16" fill="none" xmlns="http://www.w3.org/2000/svg">
<path fill-rule="evenodd" clip-rule="evenodd" d="M3.33398 3.33333C2.96579 3.33333 2.66732 3.63181 2.66732 4V13.3333C2.66732 13.7015 2.96579 14 3.33398 14H12.6673C13.0355 14 13.334 13.7015 13.334 13.3333V4C13.334 3.63181 13.0355 3.33333 12.6673 3.33333H3.33398ZM1.33398 4C1.33398 2.89543 2.22941 2 3.33398 2H12.6673C13.7719 2 14.6673 2.89543 14.6673 4V13.3333C14.6673 14.4379 13.7719 15.3333 12.6673 15.3333H3.33398C2.22941 15.3333 1.33398 14.4379 1.33398 13.3333V4Z" fill="#94A3B8"/>
<path fill-rule="evenodd" clip-rule="evenodd" d="M10.6667 0.666016C11.0349 0.666016 11.3333 0.964492 11.3333 1.33268V3.99935C11.3333 4.36754 11.0349 4.66602 10.6667 4.66602C10.2985 4.66602 10 4.36754 10 3.99935V1.33268C10 0.964492 10.2985 0.666016 10.6667 0.666016Z" fill="#94A3B8"/>
<path fill-rule="evenodd" clip-rule="evenodd" d="M5.33268 0.666016C5.70087 0.666016 5.99935 0.964492 5.99935 1.33268V3.99935C5.99935 4.36754 5.70087 4.66602 5.33268 4.66602C4.96449 4.66602 4.66602 4.36754 4.66602 3.99935V1.33268C4.66602 0.964492 4.96449 0.666016 5.33268 0.666016Z" fill="#94A3B8"/>
<path fill-rule="evenodd" clip-rule="evenodd" d="M1.33398 6.66667C1.33398 6.29848 1.63246 6 2.00065 6H14.0007C14.3688 6 14.6673 6.29848 14.6673 6.66667C14.6673 7.03486 14.3688 7.33333 14.0007 7.33333H2.00065C1.63246 7.33333 1.33398 7.03486 1.33398 6.66667Z" fill="#94A3B8"/>
<path fill-rule="evenodd" clip-rule="evenodd" d="M4.66602 9.33268C4.66602 8.96449 4.96449 8.66602 5.33268 8.66602H5.33935C5.70754 8.66602 6.00602 8.96449 6.00602 9.33268C6.00602 9.70087 5.70754 9.99935 5.33935 9.99935H5.33268C4.96449 9.99935 4.66602 9.70087 4.66602 9.33268Z" fill="#94A3B8"/>
<path fill-rule="evenodd" clip-rule="evenodd" d="M7.33398 9.33268C7.33398 8.96449 7.63246 8.66602 8.00065 8.66602H8.00732C8.37551 8.66602 8.67398 8.96449 8.67398 9.33268C8.67398 9.70087 8.37551 9.99935 8.00732 9.99935H8.00065C7.63246 9.99935 7.33398 9.70087 7.33398 9.33268Z" fill="#94A3B8"/>
<path fill-rule="evenodd" clip-rule="evenodd" d="M10 9.33268C10 8.96449 10.2985 8.66602 10.6667 8.66602H10.6733C11.0415 8.66602 11.34 8.96449 11.34 9.33268C11.34 9.70087 11.0415 9.99935 10.6733 9.99935H10.6667C10.2985 9.99935 10 9.70087 10 9.33268Z" fill="#94A3B8"/>
<path fill-rule="evenodd" clip-rule="evenodd" d="M4.66602 12.0007C4.66602 11.6325 4.96449 11.334 5.33268 11.334H5.33935C5.70754 11.334 6.00602 11.6325 6.00602 12.0007C6.00602 12.3688 5.70754 12.6673 5.33935 12.6673H5.33268C4.96449 12.6673 4.66602 12.3688 4.66602 12.0007Z" fill="#94A3B8"/>
<path fill-rule="evenodd" clip-rule="evenodd" d="M7.33398 12.0007C7.33398 11.6325 7.63246 11.334 8.00065 11.334H8.00732C8.37551 11.334 8.67398 11.6325 8.67398 12.0007C8.67398 12.3688 8.37551 12.6673 8.00732 12.6673H8.00065C7.63246 12.6673 7.33398 12.3688 7.33398 12.0007Z" fill="#94A3B8"/>
<path fill-rule="evenodd" clip-rule="evenodd" d="M10 12.0007C10 11.6325 10.2985 11.334 10.6667 11.334H10.6733C11.0415 11.334 11.34 11.6325 11.34 12.0007C11.34 12.3688 11.0415 12.6673 10.6733 12.6673H10.6667C10.2985 12.6673 10 12.3688 10 12.0007Z" fill="#94A3B8"/>
</svg>

