<svg width="16" height="16" viewBox="0 0 16 16" fill="none" xmlns="http://www.w3.org/2000/svg">
<path fill-rule="evenodd" clip-rule="evenodd" d="M11.5288 4.86128C11.7891 4.60093 12.2112 4.60093 12.4716 4.86128L15.1382 7.52794C15.3986 7.78829 15.3986 8.2104 15.1382 8.47075L12.4716 11.1374C12.2112 11.3978 11.7891 11.3978 11.5288 11.1374C11.2684 10.8771 11.2684 10.455 11.5288 10.1946L13.724 7.99935L11.5288 5.80409C11.2684 5.54374 11.2684 5.12163 11.5288 4.86128Z" fill="#94A3B8"/>
<path fill-rule="evenodd" clip-rule="evenodd" d="M4.47124 4.86128C4.73159 5.12163 4.73159 5.54374 4.47124 5.80409L2.27598 7.99935L4.47124 10.1946C4.73159 10.455 4.73159 10.8771 4.47124 11.1374C4.21089 11.3978 3.78878 11.3978 3.52843 11.1374L0.861766 8.47075C0.601417 8.2104 0.601417 7.78829 0.861766 7.52794L3.52843 4.86128C3.78878 4.60093 4.21089 4.60093 4.47124 4.86128Z" fill="#94A3B8"/>
<path fill-rule="evenodd" clip-rule="evenodd" d="M9.86553 2.03052C10.217 2.14035 10.4128 2.51427 10.303 2.86569L6.96967 13.5324C6.85985 13.8838 6.48593 14.0797 6.1345 13.9698C5.78307 13.86 5.58721 13.4861 5.69703 13.1347L9.03036 2.46799C9.14018 2.11656 9.5141 1.9207 9.86553 2.03052Z" fill="#94A3B8"/>
</svg>

