<svg width="33" height="32" viewBox="0 0 33 32" fill="none" xmlns="http://www.w3.org/2000/svg">
<path fill-rule="evenodd" clip-rule="evenodd" d="M16.5007 3.9987C9.87323 3.9987 4.50065 9.37128 4.50065 15.9987C4.50065 22.6261 9.87323 27.9987 16.5007 27.9987C23.1281 27.9987 28.5006 22.6261 28.5006 15.9987C28.5006 9.37128 23.1281 3.9987 16.5007 3.9987ZM1.83398 15.9987C1.83398 7.89852 8.40047 1.33203 16.5007 1.33203C24.6008 1.33203 31.1673 7.89852 31.1673 15.9987C31.1673 24.0989 24.6008 30.6654 16.5007 30.6654C8.40047 30.6654 1.83398 24.0989 1.83398 15.9987Z" fill="#94A3B8"/>
<path fill-rule="evenodd" clip-rule="evenodd" d="M16.4993 14.668C17.2357 14.668 17.8327 15.2649 17.8327 16.0013V21.3346C17.8327 22.071 17.2357 22.668 16.4993 22.668C15.763 22.668 15.166 22.071 15.166 21.3346V16.0013C15.166 15.2649 15.763 14.668 16.4993 14.668Z" fill="#94A3B8"/>
<path fill-rule="evenodd" clip-rule="evenodd" d="M15.166 10.6654C15.166 9.92898 15.763 9.33203 16.4993 9.33203H16.5127C17.2491 9.33203 17.846 9.92898 17.846 10.6654C17.846 11.4017 17.2491 11.9987 16.5127 11.9987H16.4993C15.763 11.9987 15.166 11.4017 15.166 10.6654Z" fill="#94A3B8"/>
</svg>

