<svg width="16" height="16" viewBox="0 0 16 16" fill="none" xmlns="http://www.w3.org/2000/svg">
<path fill-rule="evenodd" clip-rule="evenodd" d="M3.3335 2.66732C3.15668 2.66732 2.98712 2.73756 2.86209 2.86258C2.73707 2.9876 2.66683 3.15717 2.66683 3.33398V12.6673C2.66683 12.8441 2.73707 13.0137 2.86209 13.1387C2.98712 13.2637 3.15669 13.334 3.3335 13.334H6.00016C6.36835 13.334 6.66683 13.6325 6.66683 14.0007C6.66683 14.3688 6.36835 14.6673 6.00016 14.6673H3.3335C2.80306 14.6673 2.29435 14.4566 1.91928 14.0815C1.54421 13.7065 1.3335 13.1978 1.3335 12.6673V3.33398C1.3335 2.80355 1.54421 2.29484 1.91928 1.91977C2.29436 1.5447 2.80306 1.33398 3.3335 1.33398H6.00016C6.36835 1.33398 6.66683 1.63246 6.66683 2.00065C6.66683 2.36884 6.36835 2.66732 6.00016 2.66732H3.3335Z" fill="#DD503F"/>
<path fill-rule="evenodd" clip-rule="evenodd" d="M10.1953 4.19526C10.4556 3.93491 10.8777 3.93491 11.1381 4.19526L14.4714 7.5286C14.7318 7.78894 14.7318 8.21106 14.4714 8.4714L11.1381 11.8047C10.8777 12.0651 10.4556 12.0651 10.1953 11.8047C9.93491 11.5444 9.93491 11.1223 10.1953 10.8619L13.0572 8L10.1953 5.13807C9.93491 4.87772 9.93491 4.45561 10.1953 4.19526Z" fill="#DD503F"/>
<path fill-rule="evenodd" clip-rule="evenodd" d="M5.3335 8.00065C5.3335 7.63246 5.63197 7.33398 6.00016 7.33398H14.0002C14.3684 7.33398 14.6668 7.63246 14.6668 8.00065C14.6668 8.36884 14.3684 8.66732 14.0002 8.66732H6.00016C5.63197 8.66732 5.3335 8.36884 5.3335 8.00065Z" fill="#DD503F"/>
</svg>

