                <svg width="16" height="16" viewBox="0 0 16 16" fill="none" xmlns="http://www.w3.org/2000/svg">
                  <path fill-rule="evenodd" clip-rule="evenodd" d="M2 8.00065C2 7.63246 2.29848 7.33398 2.66667 7.33398H13.3333C13.7015 7.33398 14 7.63246 14 8.00065C14 8.36884 13.7015 8.66732 13.3333 8.66732H2.66667C2.29848 8.66732 2 8.36884 2 8.00065Z" fill="#94A3B8" />
                  <path fill-rule="evenodd" clip-rule="evenodd" d="M2 4.00065C2 3.63246 2.29848 3.33398 2.66667 3.33398H13.3333C13.7015 3.33398 14 3.63246 14 4.00065C14 4.36884 13.7015 4.66732 13.3333 4.66732H2.66667C2.29848 4.66732 2 4.36884 2 4.00065Z" fill="#94A3B8" />
                  <path fill-rule="evenodd" clip-rule="evenodd" d="M2 12.0007C2 11.6325 2.29848 11.334 2.66667 11.334H13.3333C13.7015 11.334 14 11.6325 14 12.0007C14 12.3688 13.7015 12.6673 13.3333 12.6673H2.66667C2.29848 12.6673 2 12.3688 2 12.0007Z" fill="#94A3B8" />
                </svg>

